:SAMPLES-PER-SECOND 30
:FULLY-SPECIFIED
:DEGREES
157
root  72.9077 19.1655 3.2936 -133.491 76.7136 175.001
RightUpLeg  -57.9823 4.25634 14.1528
RightLeg  112.61 8.28639 7.23463
RightFoot  -13.2723 -0.00642141 -8.4917
RightToes  1.74622e-010 -3.18055e-015 8.94531e-016
Spine  40.0303 4.75098 21.1638
Spine1  -6.33848 13.7444 -7.44142
HEad  -71.1147 -26.8268 11.4755
LeftShoulder1  0 -2.69403e-036 -1.28585e-037
LeftArm  24.9986 -27.9741 -131.571
LeftForeArm  30.7103 -2.17441 3.53617
LeftHand  -4.13372 -0.860843 48.0954
RightShoulder  -2.48481e-017 0 -8.08114e-019
RightArm  4.08682 42.677 12.8374
RightForeArm  -15.7715 16.2482 -8.94975
RightHand  3.81036 -13.4045 -37.5016
LeftUpLeg  -16.5951 -11.4123 13.4542
LeftLeg  58.5036 -17.7912 -10.6556
LeftFoot  18.4664 1.28634 -4.3057
LeftToes  4.94765e-010 2.02697e-011 4.00889e-011
158
root  73.8468 19.4419 3.88376 -146.152 76.4067 162.138
RightUpLeg  -55.0284 3.24753 13.9013
RightLeg  108.901 9.59936 4.86517
RightFoot  -13.6741 -0.039265 -9.14724
RightToes  1.74622e-010 -3.18055e-015 8.94531e-016
Spine  35.6408 8.09461 18.6093
Spine1  2.99978 15.4229 -2.12247
HEad  -77.2929 -31.1294 13.4886
LeftShoulder1  0 -2.69403e-036 -1.28585e-037
LeftArm  30.8969 -27.4174 -136.637
LeftForeArm  29.1836 -2.71252 5.77303
LeftHand  -4.12389 -0.847815 48.0774
RightShoulder  -2.48481e-017 0 -8.08114e-019
RightArm  18.1368 39.467 1.38192
RightForeArm  -31.439 19.0097 -14.3556
RightHand  1.46893 -8.39839 -35.4784
LeftUpLeg  -21.4618 -9.55823 12.3559
LeftLeg  66.2601 -17.1519 -12.4808
LeftFoot  13.6693 1.1648 -4.664
LeftToes  4.94765e-010 2.02697e-011 4.00889e-011
159
root  74.7996 19.5721 4.48421 -156.411 76.25 151.996
RightUpLeg  -51.897 3.05362 13.6148
RightLeg  105.528 10.4447 2.86159
RightFoot  -13.7395 -0.0447816 -9.20497
RightToes  1.74622e-010 -3.18055e-015 8.94531e-016
Spine  35.1634 8.34801 15.0823
Spine1  4.9497 14.2963 -0.851187
HEad  -78.0725 -30.1724 14.9981
LeftShoulder1  0 -2.69403e-036 -1.28585e-037
LeftArm  30.224 -27.577 -134.876
LeftForeArm  30.8389 -2.07745 5.76677
LeftHand  -4.33819 -0.948815 49.5677
RightShoulder  -2.48481e-017 0 -8.08114e-019
RightArm  19.6201 37.9373 3.56359
RightForeArm  -27.0911 19.039 -16.0506
RightHand  -1.1863 -2.03858 -33.3539
LeftUpLeg  -26.6296 -7.71922 11.1152
LeftLeg  75.0924 -15.6452 -13.4085
LeftFoot  9.97822 0.893382 -4.17103
LeftToes  4.94765e-010 2.02697e-011 4.00889e-011
160
root  75.7476 19.6196 5.05971 -164.373 76.5804 144.583
RightUpLeg  -48.65 3.96612 13.1673
RightLeg  102.678 10.6821 2.27855
RightFoot  -13.6097 -0.0312683 -8.46962
RightToes  1.74622e-010 -3.18055e-015 8.94531e-016
Spine  34.9025 8.92411 11.2087
Spine1  6.57304 13.3178 0.712828
HEad  -77.581 -28.69 15.8605
LeftShoulder1  0 -2.69403e-036 -1.28585e-037
LeftArm  28.7384 -27.7933 -132.122
LeftForeArm  32.0516 -1.90578 5.40186
LeftHand  -4.37639 -0.966206 49.831
RightShoulder  -2.48481e-017 0 -8.08114e-019
RightArm  20.0783 36.2495 7.20154
RightForeArm  -21.7323 19.3153 -18.8412
RightHand  -3.91871 5.32051 -31.1427
LeftUpLeg  -32.1272 -5.78253 10.1639
LeftLeg  84.1974 -13.7339 -12.667
LeftFoot  5.98148 0.746331 -4.26389
LeftToes  4.94765e-010 2.02697e-011 4.00889e-011
161
root  76.6058 19.603 5.56928 -170.046 77.3834 140.021
RightUpLeg  -45.0568 5.70155 12.8895
RightLeg  100.356 10.5487 3.1425
RightFoot  -13.4113 -0.0157839 -8.12441
RightToes  1.74622e-010 -3.18055e-015 8.94531e-016
Spine  34.6654 9.50283 8.03775
Spine1  8.53922 12.5927 2.12116
HEad  -77.3033 -27.6043 16.3234
LeftShoulder1  0 -2.69403e-036 -1.28585e-037
LeftArm  27.0608 -27.8663 -128.621
LeftForeArm  32.502 -2.72399 5.14749
LeftHand  -3.99375 -0.789223 47.1256
RightShoulder  -2.48481e-017 0 -8.08114e-019
RightArm  19.2831 35.6266 11.282
RightForeArm  -15.4342 19.3704 -20.0027
RightHand  -6.27636 12.0512 -29.9255
LeftUpLeg  -37.951 -4.23728 9.81236
LeftLeg  93.5281 -12.08 -11.7901
LeftFoot  1.34989 0.200165 -1.51625
LeftToes  4.94765e-010 2.02697e-011 4.00889e-011
162
root  77.3901 19.5359 6.0059 -174.76 78.5818 136.917
RightUpLeg  -40.76 7.86018 12.9015
RightLeg  98.0801 10.3859 4.61824
RightFoot  -13.1008 0.00642455 -9.16852
RightToes  1.74622e-010 -3.18055e-015 8.94531e-016
Spine  34.584 9.82632 5.8114
Spine1  10.7155 12.1559 2.4625
HEad  -77.4405 -27.1611 17.3343
LeftShoulder1  0 -2.69403e-036 -1.28585e-037
LeftArm  25.5251 -27.5771 -124.637
LeftForeArm  33.7711 -4.53933 5.0961
LeftHand  -3.77391 -0.676689 45.5477
RightShoulder  -2.48481e-017 0 -8.08114e-019
RightArm  17.4905 35.6624 16.2318
RightForeArm  -7.75302 18.7707 -19.1724
RightHand  -8.24678 17.3147 -29.969
LeftUpLeg  -43.9596 -3.45496 9.92577
LeftLeg  102.754 -10.4121 -12.1547
LeftFoot  -3.31689 -0.259836 2.83227
LeftToes  4.94765e-010 2.02697e-011 4.00889e-011
163
root  78.1483 19.452 6.36917 179.322 80.114 132.952
RightUpLeg  -35.8266 10.1964 13.0935
RightLeg  95.5204 10.4135 5.73112
RightFoot  -12.7099 0.043939 -10.8824
RightToes  1.74622e-010 -3.18055e-015 8.94531e-016
Spine  34.9111 10.2408 4.15652
Spine1  12.5821 12.2962 1.70421
HEad  -77.3864 -27.1903 19.1633
LeftShoulder1  0 -2.69403e-036 -1.28585e-037
LeftArm  24.3532 -26.7225 -121.037
LeftForeArm  35.5357 -7.36502 5.14136
LeftHand  -3.9357 -0.789602 46.5311
RightShoulder  -2.48481e-017 0 -8.08114e-019
RightArm  15.3392 34.6611 21.1693
RightForeArm  -0.19336 18.2776 -18.6094
RightHand  -10.0131 21.7964 -30.2784
LeftUpLeg  -49.9837 -3.33514 10.1847
LeftLeg  111.241 -8.05557 -13.9895
LeftFoot  -7.56801 -0.256377 4.58979
LeftToes  4.94765e-010 2.02697e-011 4.00889e-011
164
root  78.8838 19.3613 6.64266 169.771 81.7922 125.381
RightUpLeg  -30.8504 12.4265 13.2705
RightLeg  92.859 10.622 5.81807
RightFoot  -12.4841 0.0704631 -11.7778
RightToes  1.74622e-010 -3.18055e-015 8.94531e-016
Spine  35.5033 11.2159 2.64259
Spine1  13.8962 13.0994 0.861437
HEad  -76.9974 -27.4127 20.7289
LeftShoulder1  0 -2.69403e-036 -1.28585e-037
LeftArm  23.2868 -25.3073 -118.594
LeftForeArm  36.1047 -11.0853 5.40702
LeftHand  -3.65983 -0.683507 44.3033
RightShoulder  -2.48481e-017 0 -8.08114e-019
RightArm  14.5611 32.3392 24.7657
RightForeArm  4.57603 18.4178 -19.5586
RightHand  -11.5978 26.0609 -30.1567
LeftUpLeg  -55.8184 -3.63068 10.2091
LeftLeg  118.498 -5.03857 -16.0487
LeftFoot  -11.1023 -0.133212 5
LeftToes  4.94765e-010 2.02697e-011 4.00889e-011
